<?xml version="1.0"?>
<svg width="250" height="100" xmlns="http://www.w3.org/2000/svg" xmlns:svg="http://www.w3.org/2000/svg">
 <!-- Created with SVG-edit - https://github.com/SVG-Edit/svgedit-->
 <title>Logo3</title>
 <g class="layer">
  <title>Layer 1</title>
  <rect fill="#FF0000" height="96" id="svg_3" stroke="#000000" stroke-width="5" width="247" x="0.75" y="1.5"/>
  <text fill="#000000" font-family="Fantasy" font-size="32" id="svg_4" stroke="#000000" stroke-width="0" text-anchor="middle" transform="matrix(3.37162 0 0 1 -236.706 0)" x="106.612235" xml:space="preserve" y="48.5">FJSC</text>
  <polygon cx="199.75" cy="57.5" fill="#ffffff" id="svg_5" orient="point" point="5" points="220.75,46.714664459228516 225.1667022705078,59.420936584472656 238.6159210205078,59.695011138916016 227.8963623046875,67.82199478149414 231.791748046875,80.6976547241211 220.75,73.0141372680664 209.708251953125,80.6976547241211 213.6036376953125,67.82199478149414 202.8840789794922,59.695011138916016 216.3332977294922,59.420936584472656 220.75,46.714664459228516 225.1667022705078,59.420936584472656 " r="18.785337" r2="7.514135" shape="star" stroke="#000000" stroke-width="5" strokeWidth="5" strokecolor="#000000"/>
  <path d="m9.75,65.5c1,0 1.777364,-0.059051 2.520833,-0.231678c0.936418,-0.217428 1.836392,-0.13408 2.645834,-0.308903c0.693279,-0.149734 1.506877,-0.317086 2.349334,-0.425053c0.881041,-0.112908 1.685205,-0.379404 2.584,-0.424512c0.701059,-0.035185 1.323135,-0.32293 1.9,-0.685301c0.428577,-0.269221 1.512993,-0.175494 2.4,-0.246274c0.833141,-0.066482 1.626293,-0.348344 2.300001,-0.482817c0.841793,-0.168021 1.640966,-0.387294 2.274666,-0.636032c0.593508,-0.232961 1.435879,-0.204677 2.325333,-0.268362c0.934256,-0.066892 1.491035,-0.346477 2.469334,-0.55394c0.735771,-0.156033 1.288044,-0.225216 2.309166,-0.416943c0.905754,-0.170064 1.522495,-0.28047 2.512501,-0.394781c0.840385,-0.097036 1.162132,-0.585423 1.851833,-0.836435c0.609383,-0.221779 1.689098,-0.070197 2.441166,-0.152134c0.987595,-0.107595 1.713997,-0.3349 2.514668,-0.51587c0.762211,-0.172277 1.76749,-0.268259 2.601334,-0.448526c0.657532,-0.142147 1.410709,-0.368971 2.321335,-0.386209c0.853374,-0.016154 1.742657,-0.174736 2.477333,-0.331685c0.856979,-0.183075 1.745365,-0.107236 2.686665,-0.263803c0.748207,-0.12445 1.502136,-0.343602 2.314667,-0.511545c0.788712,-0.163019 1.807888,-0.22784 2.542835,-0.30736c0.932148,-0.100857 1.614628,-0.333095 2.426498,-0.400031c1.006062,-0.082946 2.073624,-0.10074 2.768997,-0.202331c0.813087,-0.118789 1.749237,-0.240114 2.413506,-0.463356c0.675896,-0.227148 1.399986,-0.298904 2.412163,-0.299946c0.835999,-0.000861 1.742844,0.051321 2.636002,0c0.899231,-0.051671 1.282356,-0.443564 2.199997,-0.463356c0.899025,-0.01939 1.800003,0 2.600006,0c0.899994,0 1.819603,0.000903 2.599998,-0.197081c0.822556,-0.208682 1.699997,-0.266274 2.599998,-0.266274c0.800003,0 1.708549,0.045958 2.520836,-0.009653c0.988098,-0.067646 1.67968,-0.254704 2.457664,-0.499962c0.743622,-0.234426 1.521324,-0.41227 2.432167,-0.417097c0.910606,-0.004825 1.764,0 2.704002,0c0.88533,0 1.642494,0 2.537994,0c0.863335,0 1.8265,0 2.758003,0c0.910995,0 1.630997,0 2.755997,0c0.781502,0 1.572006,0 2.690338,0c0.721664,0 1.642998,0 2.553665,0c0.910667,0 1.764,0 2.704002,0c0.88533,0 1.685333,0 2.585327,0c0.936005,0 1.834145,-0.107489 2.590172,0.026489c0.89727,0.159008 1.471489,0.435824 2.375999,0.436867c0.852669,0.000983 1.667168,0 2.634666,0c0.678329,0 1.645828,0 2.643166,0c0.851997,0 1.768715,0.005061 2.820335,0.102633c0.605721,0.0562 1.280159,0.133766 2.354332,0.268669c1.062569,0.133447 1.71669,0.233776 2.634659,0.353385c0.558273,0.072742 1.788345,0.186847 2.642166,0.199938c1.006638,0.015434 1.646179,0.002086 2.375168,0.002086c1.197342,0 1.880005,0 2.924011,0c0.972,0 1.791,0 2.696335,0c1.01033,0 1.629822,-0.001502 2.775665,0c0.795013,0.001043 1.681549,0.008695 2.319992,0.03954c1.037964,0.050147 1.7686,0.120657 2.513336,0.20179c1.120163,0.122032 2.17865,0.26752 2.833832,0.358948c0.884171,0.123381 1.831009,0.253435 2.568832,0.319637c0.686905,0.061635 1.764328,0.160597 2.790665,0.269983c0.593521,0.063257 1.226196,0.13194 1.889999,0.200169c0.682861,0.070188 2.066528,0.209864 3.416672,0.308904c0.63385,0.046496 1.241684,0.081018 2.381332,0.126032c0.534927,0.021129 1.550507,0.038409 2.951996,0.105645c0.446304,0.02141 1.314011,0.086183 2.166672,0.154451c0.852661,0.068269 2.165878,0.15872 3.091995,0.193373c0.487305,0.018234 1.533203,0.046748 2.098679,0.066724c0.599869,0.02119 1.241608,0.035106 3.415833,0.17677c0.81395,0.053034 1.652924,0.122172 2.509491,0.193914c0.863785,0.072348 1.721756,0.149129 2.563507,0.227277c0.815582,0.075719 2.32074,0.222596 2.991165,0.290292c0.614883,0.062087 1.177246,0.120648 1.692001,0.173758c0.901184,0.092981 1.651276,0.190331 2.865326,0.260097c0.910736,0.052337 1.888,0.03954 2.656006,0.03954c0.951996,0 1.717331,0 2.711502,0c0.919159,0 1.77916,0 2.725662,0.000078l0.817505,0.016604l0.799988,0.180397" fill="#ffffff" id="svg_11" stroke="#000000" stroke-dasharray="null" stroke-linecap="null" stroke-linejoin="null" stroke-width="5"/>
 </g>
</svg>