<?xml version="1.0" encoding="UTF-8" standalone="no"?>
<!-- Created with Inkscape (http://www.inkscape.org/) -->

<svg
   xmlns:dc="http://purl.org/dc/elements/1.1/"
   xmlns:cc="http://creativecommons.org/ns#"
   xmlns:rdf="http://www.w3.org/1999/02/22-rdf-syntax-ns#"
   xmlns:svg="http://www.w3.org/2000/svg"
   xmlns="http://www.w3.org/2000/svg"
   xmlns:xlink="http://www.w3.org/1999/xlink"
   xmlns:sodipodi="http://sodipodi.sourceforge.net/DTD/sodipodi-0.dtd"
   xmlns:inkscape="http://www.inkscape.org/namespaces/inkscape"
   width="250"
   height="100"
   viewBox="0 0 66.145832 26.458334"
   version="1.1"
   id="svg8"
   inkscape:version="0.92.3 (2405546, 2018-03-11)"
   sodipodi:docname="Logo2.svg">
  <defs
     id="defs2">
    <linearGradient
       inkscape:collect="always"
       id="linearGradient871">
      <stop
         style="stop-color:#d4aa00;stop-opacity:1;"
         offset="0"
         id="stop867" />
      <stop
         style="stop-color:#d4aa00;stop-opacity:0;"
         offset="1"
         id="stop869" />
    </linearGradient>
    <linearGradient
       inkscape:collect="always"
       id="linearGradient849">
      <stop
         style="stop-color:#008000;stop-opacity:1;"
         offset="0"
         id="stop845" />
      <stop
         style="stop-color:#008000;stop-opacity:0;"
         offset="1"
         id="stop847" />
    </linearGradient>
    <linearGradient
       inkscape:collect="always"
       xlink:href="#linearGradient849"
       id="linearGradient851"
       x1="11.811756"
       y1="278.21365"
       x2="60.296204"
       y2="279.33859"
       gradientUnits="userSpaceOnUse" />
    <linearGradient
       inkscape:collect="always"
       xlink:href="#linearGradient871"
       id="linearGradient873"
       x1="5.0358744"
       y1="288.92459"
       x2="53.920815"
       y2="287.95184"
       gradientUnits="userSpaceOnUse" />
  </defs>
  <sodipodi:namedview
     id="base"
     pagecolor="#ffffff"
     bordercolor="#666666"
     borderopacity="1.0"
     inkscape:pageopacity="0.0"
     inkscape:pageshadow="2"
     inkscape:zoom="2.352"
     inkscape:cx="62.911624"
     inkscape:cy="58.195506"
     inkscape:document-units="mm"
     inkscape:current-layer="layer1"
     showgrid="false"
     units="px"
     inkscape:snap-object-midpoints="false"
     inkscape:snap-center="false"
     inkscape:snap-others="false"
     inkscape:window-width="1366"
     inkscape:window-height="706"
     inkscape:window-x="-8"
     inkscape:window-y="-8"
     inkscape:window-maximized="1" />
  <metadata
     id="metadata5">
    <rdf:RDF>
      <cc:Work
         rdf:about="">
        <dc:format>image/svg+xml</dc:format>
        <dc:type
           rdf:resource="http://purl.org/dc/dcmitype/StillImage" />
        <dc:title></dc:title>
      </cc:Work>
    </rdf:RDF>
  </metadata>
  <g
     inkscape:label="Capa 1"
     inkscape:groupmode="layer"
     id="layer1"
     transform="translate(0,-270.54165)">
    <rect
       style="fill:#1a1a1a;stroke-width:0.26458332;fill-opacity:1"
       id="rect815"
       width="66.370819"
       height="26.660818"
       x="0.11249291"
       y="270.56415" />
    <text
       xml:space="preserve"
       style="font-style:normal;font-weight:normal;font-size:10.58333302px;line-height:1.25;font-family:sans-serif;letter-spacing:0px;word-spacing:0px;fill:#f2f2f2;fill-opacity:1;stroke:none;stroke-width:0.26458332;"
       x="9.1119261"
       y="282.26343"
       id="text827"><tspan
         sodipodi:role="line"
         id="tspan825"
         x="9.1119261"
         y="282.26343"
         style="font-style:normal;font-variant:normal;font-weight:normal;font-stretch:normal;font-family:'Wide Latin';-inkscape-font-specification:'Wide Latin';stroke-width:0.26458332;fill:#f2f2f2;fill-opacity:1;">FJSC</tspan></text>
    <path
       sodipodi:type="star"
       style="fill:#f2f2f2;stroke-width:0.26458332"
       id="path843"
       sodipodi:sides="5"
       sodipodi:cx="55.234021"
       sodipodi:cy="287.55057"
       sodipodi:r1="2.7463019"
       sodipodi:r2="1.3731509"
       sodipodi:arg1="0.96007036"
       sodipodi:arg2="1.5883889"
       inkscape:flatsided="false"
       inkscape:rounded="0"
       inkscape:randomized="0"
       d="m 56.808921,289.80043 -1.599057,-0.87692 -1.628915,0.82012 0.339865,-1.79177 -1.283349,-1.29576 1.809105,-0.23046 0.835762,-1.62095 0.778224,1.64935 1.799878,0.29395 -1.328136,1.24981 z"
       inkscape:transform-center-x="-0.014929189"
       inkscape:transform-center-y="-0.24800964" />
    <path
       style="fill:url(#linearGradient873);stroke-width:0.26458332;fill-opacity:1"
       id="path865"
       d="m 6.4922206,288.11117 c 0.1805517,0.46697 0.2628085,0.95717 0.328589,1.45111 0.037071,0.44095 0.1247018,0.88953 0.064149,1.33166 -0.051318,0.16303 -0.1190731,0.3786 -0.2785163,0.47345 -1.4662258,0.8723 -0.9689764,0.74081 -1.6648602,0.9066 -0.3174116,0.0543 -0.4615005,0.0765 -0.6327727,-0.22453 -0.1091774,-0.33919 -0.089415,-0.70535 -0.090801,-1.0577 -0.00904,-0.50114 0.067341,-0.99813 0.1921754,-1.48203 0.1045522,-0.4788 0.2998099,-0.91312 0.555177,-1.32806 0.3299672,-0.48417 0.7758295,-0.85763 1.253826,-1.18706 0.5578499,-0.31683 1.1070066,-0.64948 1.6735499,-0.95048 0.116409,-0.0618 0.2465192,-0.0936 0.3713443,-0.13598 0.584308,-0.19832 1.1753144,-0.30496 1.784172,-0.39427 0.560739,-0.0354 1.147669,-0.18791 1.710071,-0.0768 0.08306,0.0164 0.162606,0.0473 0.243909,0.0709 0.07849,0.0365 0.160473,0.0663 0.235474,0.10951 0.266005,0.15331 0.485842,0.37916 0.708051,0.58681 0.345108,0.32249 0.166602,0.15005 0.509828,0.49255 0.479449,0.45289 0.898258,0.95966 1.280126,1.496 0.359639,0.51716 0.497717,1.13076 0.609115,1.73992 0.06304,0.48049 0.123388,0.96423 0.114645,1.44963 -0.01213,0.21739 -0.07077,0.48741 -0.276298,0.61035 -0.50561,0.30243 -1.019622,0.59059 -1.529433,0.88589 -0.254653,0.0774 -0.524693,0.1241 -0.789831,0.0893 -0.252254,-0.0817 -0.485178,-0.21879 -0.712925,-0.3533 -0.285434,-0.24027 -0.506424,-0.54995 -0.739187,-0.84004 -0.20544,-0.23065 -0.347709,-0.48987 -0.411396,-0.79114 -0.0477,-0.3347 -0.04354,-0.67554 -0.02254,-1.01221 0.0939,-0.73513 0.563432,-1.20762 1.090165,-1.68031 0.392085,-0.3047 0.806043,-0.57996 1.236483,-0.82736 0.878359,-0.50484 1.572643,-0.94578 2.464267,-1.29827 0.369546,-0.10703 0.73302,-0.2496 1.11306,-0.31677 0.503995,-0.0468 1.001634,0.0594 1.490247,0.16983 0.880069,0.21416 1.761865,0.44883 2.595096,0.80798 0.559251,0.24034 1.002866,0.62985 1.407496,1.07351 0.306358,0.33382 0.458776,0.76231 0.578144,1.19126 0.145863,0.6336 0.125161,1.28581 0.105843,1.93069 -0.03945,0.54335 -0.12324,1.09058 -0.388912,1.57257 -0.520516,0.62545 -1.319609,1.07037 -2.129902,1.16942 -0.305036,0.0355 -0.582379,-0.10838 -0.842817,-0.24822 -0.32762,-0.22567 -0.679555,-0.41455 -0.999879,-0.65059 -0.239939,-0.18544 -0.398315,-0.42529 -0.500698,-0.70693 -0.125414,-0.53252 -0.177172,-1.07953 -0.193016,-1.62537 0.01136,-0.93546 0.402097,-1.51511 0.965965,-2.22488 0.617349,-0.69759 1.316935,-1.3233 2.088759,-1.84482 0.783999,-0.32716 1.534249,-1.04494 2.410278,-1.25991 0.211978,-0.052 0.393976,-0.065 0.611393,-0.0896 0.68658,-0.0384 1.38335,-0.0231 2.064427,0.0803 0.599585,0.091 0.90512,0.18077 1.500504,0.32679 0.693378,0.20683 1.386607,0.42263 2.057699,0.69504 0.303787,0.12331 0.635431,0.26813 0.908127,0.45637 0.124314,0.0858 0.233428,0.19179 0.350144,0.28769 0.396134,0.43049 0.760399,0.90721 1.00598,1.44209 0.147109,0.32041 0.169281,0.45556 0.262451,0.79486 0.136409,0.75799 0.245676,1.54207 0.165346,2.31219 -0.0853,0.49822 -0.317352,0.83675 -0.711883,1.13645 -1.027721,0.6329 -1.481489,1.05701 -2.537904,1.114 -0.528836,0.015 -1.058122,0.008 -1.58713,0.007 -0.332623,-0.0378 -0.673719,-0.0252 -1.005297,-0.0721 -0.100483,-0.0142 -0.305104,-0.0711 -0.406816,-0.098 -0.414312,-0.12464 -0.519924,-0.47674 -0.591125,-0.86405 -0.05547,-0.6124 -0.06884,-1.25412 0.130461,-1.8451 0.05454,-0.16173 0.131129,-0.31517 0.196693,-0.47275 0.397421,-0.81647 0.887846,-1.57964 1.527889,-2.22507 0.700055,-0.5951 1.522298,-1.01701 2.329838,-1.44872 0.101749,-0.0544 0.413774,-0.11577 0.52314,-0.14009 0.647864,-0.16982 1.318773,-0.1664 1.983272,-0.17 1.164751,5e-5 2.33794,-0.001 3.492981,0.17172 0.250373,0.0375 0.498126,0.0908 0.747189,0.13622 1.148776,0.23332 2.287457,0.52589 3.345349,1.03843 0.08756,0.0608 0.183261,0.11129 0.262692,0.18239 0.419639,0.37559 0.598299,1.03826 0.739812,1.55876 0.154434,0.74266 0.259339,1.50481 0.190865,2.26309 -0.07774,0.50719 -0.258847,0.87288 -0.621837,1.22827 -0.764892,0.61077 -1.630617,1.03921 -2.57759,1.22184 -0.597035,0.12612 -0.825762,0.0445 -1.322009,-0.29061 -0.466622,-0.36487 -0.711311,-0.71134 -0.877543,-1.27722 -0.155927,-0.87734 -0.06768,-1.76514 0.100102,-2.63241 0.166719,-0.70993 0.395896,-1.43235 0.813089,-2.04042 0.07855,-0.11449 0.173497,-0.21683 0.260246,-0.32524 0.333214,-0.35867 0.72703,-0.6499 1.149141,-0.89561 0.685655,-0.39913 1.557843,-0.94539 2.357353,-1.28265 0.187272,-0.079 0.379971,-0.14445 0.569958,-0.21668 0.48837,-0.16224 0.984019,-0.30521 1.487715,-0.41186 0.223967,-0.0474 0.466166,-0.0947 0.697145,-0.0939 0.106344,3.7e-4 0.211849,0.0189 0.317775,0.0283 0.112207,0.032 0.227285,0.0553 0.336622,0.0961 0.230002,0.0858 0.61533,0.28947 0.822237,0.3986 0.536488,0.28297 1.064594,0.58091 1.600909,0.8643 0.901438,0.46055 1.829464,0.87646 2.672464,1.44058 0.444357,0.31251 0.89707,0.61443 1.323575,0.9513 0.313664,0.20846 0.430411,0.36459 0.51144,0.7294 0.0449,0.35061 0.04947,0.70736 0.02572,1.05973 -0.06553,0.5405 -0.212788,0.74981 -0.645927,1.07101 -0.546301,0.3146 -1.092602,0.62921 -1.638906,0.94382 0.36603,-0.20945 1.462741,-0.84019 1.098093,-0.62835 -0.631302,0.36676 -1.242611,0.77459 -1.906768,1.07781 -0.154845,0.0707 -0.3151,0.12888 -0.472408,0.19391 -0.358174,0.15962 -0.723691,0.21387 -1.111483,0.19087 -0.707551,-0.0956 -1.401572,-0.25499 -2.091661,-0.43462 -0.216498,-0.0992 -0.489423,-0.1606 -0.670126,-0.32858 -0.184991,-0.17196 -0.265914,-0.4334 -0.352197,-0.66112 -0.204973,-0.74449 -0.116271,-1.51234 0.04297,-2.25464 0.234614,-0.80705 0.726088,-1.48151 1.314762,-2.06632 0.742519,-0.60053 1.550988,-1.22028 2.484546,-1.46484 0.26434,-0.0535 0.535318,-0.0427 0.803317,-0.0372 0.558893,0.0353 1.09613,0.1907 1.635292,0.33028 0.75107,0.17794 1.4883,0.41111 2.245897,0.5599 0.574665,0.10379 1.13347,0.27463 1.705602,0.39001 0.19262,0.0245 0.380693,0.0766 0.56482,0.13698 0,0 -1.377022,0.93241 -1.377022,0.93241 v 0 c -0.171056,-0.062 -0.348062,-0.10573 -0.52647,-0.1411 -0.557647,-0.13739 -1.108311,-0.30423 -1.673821,-0.40852 -0.753223,-0.16037 -1.48464,-0.40265 -2.23557,-0.57373 -0.549746,-0.1229 -1.103572,-0.25313 -1.669904,-0.25955 -0.260337,0.004 -0.524653,6e-4 -0.776058,0.0788 -0.530108,0.19045 -1.232625,0.66607 0.947224,-0.60184 0.06597,-0.0384 -0.132275,0.0764 -0.196035,0.11831 -0.153006,0.10067 -0.306853,0.22183 -0.452117,0.33223 -0.612137,0.54913 -1.122598,1.20147 -1.382514,1.99216 -0.154292,0.71097 -0.247708,1.43712 -0.03671,2.1491 0.207367,0.56587 0.357455,0.66439 0.924658,0.87042 0.681442,0.19355 1.376836,0.35086 2.086613,0.38737 0.37285,-0.0159 0.728643,-0.0871 1.07112,-0.24187 0.152054,-0.0629 0.305858,-0.12398 0.453911,-0.19607 0.08494,-0.0414 0.332193,-0.17986 0.251156,-0.13131 -1.135816,0.68056 -2.22563,1.26451 0.551905,-0.32024 0.374364,-0.21359 -0.743646,0.43597 -1.11547,0.65396 0.403209,-0.23983 0.614489,-0.44994 0.686125,-0.92744 0.02717,-0.33693 0.02043,-0.67708 -0.01675,-1.01315 -0.06139,-0.32676 -0.172894,-0.44137 -0.440102,-0.64025 -0.411523,-0.34009 -0.848633,-0.64811 -1.278356,-0.9645 -0.818787,-0.56893 -1.714328,-1.01347 -2.601423,-1.46484 -0.543589,-0.27998 -1.080585,-0.57461 -1.632386,-0.8383 -0.247378,-0.11822 -0.568905,-0.2692 -0.837703,-0.34827 -0.106873,-0.0314 -0.21817,-0.0452 -0.327255,-0.0678 -0.100021,-0.004 -0.200033,-0.0144 -0.300061,-0.011 -0.719138,0.0244 -1.417736,0.29185 -2.097593,0.49487 -0.188315,0.0756 -0.379413,0.14452 -0.564947,0.22668 -0.523957,0.232 -1.202531,0.63977 0.27794,-0.2278 0.150122,-0.088 -0.301244,0.17472 -0.445696,0.27173 -0.130283,0.0875 -0.256246,0.18168 -0.377629,0.28114 -0.109633,0.0898 -0.209725,0.19073 -0.314584,0.2861 -0.09052,0.10081 -0.19036,0.19399 -0.271564,0.30245 -0.436938,0.58361 -0.66793,1.30812 -0.856413,2.0009 -0.170609,0.83614 -0.257697,1.69087 -0.07714,2.53495 0.147182,0.50821 0.38358,0.86645 0.820655,1.17712 0.486582,0.30283 0.698836,0.30011 1.252324,0.18307 0.220326,-0.0531 0.43584,-0.11151 0.649229,-0.18862 0.06223,-0.0225 0.241056,-0.1071 0.185031,-0.0719 -0.725625,0.456 -1.722382,0.99718 -1.064945,0.63856 0.377385,-0.3039 0.600368,-0.64933 0.695396,-1.13229 0.109255,-0.7407 0.02331,-1.49242 -0.139404,-2.22003 -0.137146,-0.48383 -0.314795,-1.10197 -0.704823,-1.4523 -0.07284,-0.0654 -0.159433,-0.11368 -0.239149,-0.17052 -1.008801,-0.53946 -2.107681,-0.85449 -3.230536,-1.06091 -0.671856,-0.11155 -0.798235,-0.1458 -1.468562,-0.20587 -0.93549,-0.0838 -1.874319,-0.0715 -2.811822,-0.0363 -0.674889,0.0301 -1.354574,0.0561 -2.010534,0.23404 -0.650957,0.1828 -1.282264,0.61918 0.652787,-0.50766 0.08027,-0.0467 -0.159594,0.0951 -0.237651,0.1455 -0.226745,0.14624 -0.28929,0.19829 -0.510426,0.36197 -0.67037,0.61786 -1.189935,1.36342 -1.590273,2.1827 -0.06326,0.14811 -0.136411,0.29238 -0.189786,0.44433 -0.198072,0.56393 -0.193518,1.17302 -0.113299,1.75761 0.06933,0.35681 0.125219,0.59074 0.502605,0.70199 0.447542,0.11317 0.910381,0.12568 1.369742,0.15031 0.531072,0.002 1.063067,0.008 1.593191,-0.0286 0.191035,-0.0216 0.376288,-0.0452 0.560293,-0.10372 0.538078,-0.17105 1.385345,-0.78287 -0.84944,0.55616 0.425286,-0.27236 0.648671,-0.52124 0.784604,-1.02312 0.132132,-0.75147 0.02729,-1.52495 -0.107683,-2.26961 -0.03517,-0.13062 -0.06371,-0.2632 -0.105519,-0.39185 -0.217371,-0.66881 -0.622062,-1.2622 -1.107355,-1.76454 -0.111178,-0.0902 -0.216485,-0.18815 -0.333528,-0.27059 -0.271825,-0.19146 -0.553112,-0.32601 -0.857161,-0.46025 -0.649321,-0.28668 -1.322924,-0.51615 -2.007318,-0.70307 -0.260554,-0.058 -0.519257,-0.12508 -0.781661,-0.17405 -0.937996,-0.17506 -1.904359,-0.22166 -2.852715,-0.11366 -0.265849,0.0432 -0.355578,0.0478 -0.607148,0.12521 -0.548709,0.16894 -1.831059,0.94788 0.352029,-0.31319 -0.797354,0.50301 -1.518082,1.11883 -2.151905,1.81737 -0.537194,0.65597 -0.933907,1.22348 -0.957135,2.09933 0.0043,0.52645 0.06469,1.05082 0.198686,1.56101 0.09247,0.24909 0.246322,0.45782 0.456371,0.62304 0.308431,0.23512 0.640334,0.43839 0.976694,0.63073 0.253784,0.11821 0.511573,0.2169 0.795378,0.15505 0.09999,-0.0212 0.145237,-0.0269 0.241898,-0.0632 0.04108,-0.0154 0.158026,-0.0757 0.120443,-0.0531 -2.330783,1.40355 -1.508394,0.93806 -1.057986,0.60004 0.333683,-0.4316 0.419134,-0.9878 0.478248,-1.5168 0.02017,-0.62471 0.02137,-1.25521 -0.120018,-1.86803 -0.11418,-0.40417 -0.253443,-0.80803 -0.536534,-1.12801 -0.393351,-0.43281 -0.79436,-0.80128 -1.343176,-1.03466 -0.819022,-0.36525 -1.686624,-0.61178 -2.565408,-0.78637 -0.499044,-0.0844 -1.013243,-0.16858 -1.517206,-0.0715 -0.353336,0.0809 -0.702669,0.18483 -1.045389,0.30189 -0.105749,0.043 -0.212849,0.0828 -0.317248,0.12904 -0.123996,0.0549 -0.48003,0.24994 -0.367674,0.17403 0.295763,-0.19981 0.614918,-0.36263 0.920315,-0.54738 0.145028,-0.0877 -0.29525,0.16679 -0.439179,0.25631 -0.139862,0.087 -0.275785,0.18022 -0.411848,0.27305 -0.125571,0.0857 -0.248653,0.17493 -0.37298,0.2624 -0.490626,0.417 -0.994666,0.87014 -1.089375,1.54174 -0.0237,0.321 -0.01491,0.64504 0.01937,0.96518 0.0507,0.27811 0.173445,0.51691 0.360237,0.73111 0.214361,0.27864 0.429806,0.5735 0.718845,0.77859 0.211976,0.11872 0.426576,0.25851 0.671944,0.28928 0.252545,-0.004 0.506325,-0.0422 0.733103,-0.15945 -3.464304,2.04106 -1.213568,0.83742 -1.025925,0.53797 0.06692,-0.1068 0.05763,-0.13777 0.07668,-0.26343 0.04976,-0.47566 -0.01465,-0.95969 -0.06464,-1.43271 -0.09896,-0.58739 -0.234149,-1.17829 -0.578094,-1.67635 -0.370118,-0.5314 -0.779195,-1.034 -1.249924,-1.48052 -0.43021,-0.41671 -0.862129,-0.88709 -1.433805,-1.10124 -0.617496,-0.13892 -1.24802,-0.0485 -1.8699948,0.0246 -0.6070216,0.0938 -1.1989882,0.21156 -1.774758,0.4321 -0.1261756,0.0483 -0.4845201,0.23489 -0.3730673,0.15851 0.3408691,-0.23361 0.7105187,-0.42216 1.0657782,-0.63325 -0.4783259,0.30683 -0.9228958,0.66085 -1.2660606,1.11939 -0.2629342,0.39896 -0.4674648,0.81245 -0.5724086,1.28239 -0.1350359,0.46718 -0.2266334,0.94967 -0.204492,1.43833 0.00364,0.32271 -0.00812,0.65552 0.076351,0.96936 0.1056341,0.18132 0.3334936,0.0847 0.5001419,0.0424 0.5856827,-0.24193 0.095528,-0.0459 -1.177853,0.71341 -0.036366,0.0217 0.07881,-0.0328 0.1134269,-0.0572 0.065464,-0.0461 0.1214651,-0.12304 0.1613246,-0.19058 0.021767,-0.0369 0.038187,-0.0767 0.05728,-0.11499 0.1188694,-0.42243 0.018539,-0.87271 -0.00175,-1.30276 -0.06111,-0.47681 -0.1372455,-0.95457 -0.3641871,-1.38517 0,0 1.4563397,-0.81326 1.4563397,-0.81326 z"
       inkscape:connector-curvature="0" />
  </g>
</svg>
